<?xml version="1.0" encoding="UTF-8" standalone="no"?>
<!-- Created with Inkscape (http://www.inkscape.org/) -->
<svg
   xmlns:dc="http://purl.org/dc/elements/1.1/"
   xmlns:cc="http://creativecommons.org/ns#"
   xmlns:rdf="http://www.w3.org/1999/02/22-rdf-syntax-ns#"
   xmlns:svg="http://www.w3.org/2000/svg"
   xmlns="http://www.w3.org/2000/svg"
   xmlns:sodipodi="http://sodipodi.sourceforge.net/DTD/sodipodi-0.dtd"
   xmlns:inkscape="http://www.inkscape.org/namespaces/inkscape"
   id="svg2403"
   sodipodi:version="0.32"
   inkscape:version="0.46"
   width="708.30505"
   height="148.765"
   xml:space="preserve"
   sodipodi:docname="Ostfalia_LS_RGB.svg"
   inkscape:output_extension="org.inkscape.output.svg.inkscape"
   version="1.0"><metadata
     id="metadata2408"><rdf:RDF><cc:Work
         rdf:about=""><dc:format>image/svg+xml</dc:format><dc:type
           rdf:resource="http://purl.org/dc/dcmitype/StillImage" /></cc:Work></rdf:RDF></metadata><defs
     id="defs2406"><inkscape:perspective
       sodipodi:type="inkscape:persp3d"
       inkscape:vp_x="0 : 526.18109 : 1"
       inkscape:vp_y="0 : 1000 : 0"
       inkscape:vp_z="744.09448 : 526.18109 : 1"
       inkscape:persp3d-origin="372.04724 : 350.78739 : 1"
       id="perspective2410" /><clipPath
       clipPathUnits="userSpaceOnUse"
       id="clipPath2418"><path
         d="M 0,62.362 L 289.134,62.362 L 289.134,0 L 0,0 L 0,62.362 z"
         id="path2420" /></clipPath></defs><sodipodi:namedview
     inkscape:window-height="937"
     inkscape:window-width="1274"
     inkscape:pageshadow="2"
     inkscape:pageopacity="0.0"
     guidetolerance="10.0"
     gridtolerance="10.0"
     objecttolerance="10.0"
     borderopacity="1.0"
     bordercolor="#666666"
     pagecolor="#ffffff"
     id="base"
     showgrid="false"
     inkscape:zoom="1.03"
     inkscape:cx="17.116522"
     inkscape:cy="38.976376"
     inkscape:window-x="0"
     inkscape:window-y="0"
     inkscape:current-layer="g2412" /><g
     id="g2412"
     inkscape:groupmode="layer"
     inkscape:label="Ostfalia_LS_RGB"
     transform="matrix(1.25,0,0,-1.25,173.32626,113.8675)"><g
       id="g2414"
       transform="matrix(2,0,0,2,-144.66101,-31.588)"><g
         id="g2416"
         clip-path="url(#clipPath2418)"><path
           d="M 3,23.454 L 3,36.918 L 4.716,36.918 L 4.716,31.1 L 9.434,31.1 L 9.434,36.918 L 11.149,36.918 L 11.149,23.454 L 9.434,23.454 L 9.434,29.607 L 4.716,29.607 L 4.716,23.454 L 3,23.454 z"
           style="fill:#004077;fill-opacity:1;fill-rule:nonzero;stroke:none"
           id="path2422" /><path
           d="M 19.372,28.676 C 19.372,31.249 18.57,31.809 17.396,31.809 C 16.22,31.809 15.418,31.249 15.418,28.676 C 15.418,25.617 15.811,24.517 17.396,24.517 C 18.98,24.517 19.372,25.617 19.372,28.676 M 13.815,28.022 C 13.815,30.783 14.132,33.059 17.396,33.059 C 20.659,33.059 20.976,30.783 20.976,28.022 C 20.976,23.865 19.391,23.269 17.396,23.269 C 15.4,23.269 13.815,23.865 13.815,28.022"
           style="fill:#004077;fill-opacity:1;fill-rule:nonzero;stroke:none"
           id="path2424" /><path
           d="M 28.136,29.851 C 28.173,31.397 27.408,31.809 26.83,31.809 C 25.656,31.809 24.854,31.249 24.854,28.676 C 24.854,25.617 25.245,24.517 26.83,24.517 C 27.184,24.517 28.248,24.89 28.192,26.587 L 29.795,26.587 C 29.851,23.938 27.875,23.269 26.83,23.269 C 24.835,23.269 23.25,23.865 23.25,28.022 C 23.25,30.783 23.567,33.059 26.83,33.059 C 28.714,33.059 29.814,31.958 29.72,29.851 L 28.136,29.851 z"
           style="fill:#004077;fill-opacity:1;fill-rule:nonzero;stroke:none"
           id="path2426" /><path
           d="M 37.384,23.454 L 37.384,29.833 C 37.384,30.988 37.011,31.809 35.706,31.809 C 34.177,31.809 33.785,30.578 33.785,28.992 L 33.785,23.454 L 32.255,23.454 L 32.255,36.918 L 33.785,36.918 L 33.785,31.659 L 33.86,31.659 C 34.475,32.76 35.184,33.059 36.415,33.059 C 38.018,33.059 38.913,32.256 38.913,30.131 L 38.913,23.454 L 37.384,23.454 z"
           style="fill:#004077;fill-opacity:1;fill-rule:nonzero;stroke:none"
           id="path2428" /><path
           d="M 44.32,23.269 C 42.287,23.269 41.019,24.163 41.075,26.325 L 42.809,26.325 C 42.809,25.785 42.828,24.517 44.375,24.517 C 45.29,24.517 45.998,24.982 45.998,25.954 C 45.998,27.632 41.298,27.668 41.298,30.484 C 41.298,31.474 41.895,33.059 44.544,33.059 C 46.222,33.059 47.658,32.256 47.527,30.392 L 45.83,30.392 C 45.849,31.38 45.327,31.901 44.357,31.901 C 43.536,31.901 42.903,31.454 42.903,30.634 C 42.903,28.975 47.602,29.011 47.602,26.14 C 47.602,24.069 46.185,23.269 44.32,23.269"
           style="fill:#004077;fill-opacity:1;fill-rule:nonzero;stroke:none"
           id="path2430" /><path
           d="M 54.65,29.851 C 54.688,31.397 53.923,31.809 53.345,31.809 C 52.169,31.809 51.368,31.249 51.368,28.676 C 51.368,25.617 51.76,24.517 53.345,24.517 C 53.699,24.517 54.762,24.89 54.706,26.587 L 56.31,26.587 C 56.366,23.938 54.389,23.269 53.345,23.269 C 51.349,23.269 49.764,23.865 49.764,28.022 C 49.764,30.783 50.081,33.059 53.345,33.059 C 55.228,33.059 56.329,31.958 56.235,29.851 L 54.65,29.851 z"
           style="fill:#004077;fill-opacity:1;fill-rule:nonzero;stroke:none"
           id="path2432" /><path
           d="M 63.879,23.454 L 63.879,29.833 C 63.879,30.988 63.506,31.809 62.201,31.809 C 60.672,31.809 60.281,30.578 60.281,28.992 L 60.281,23.454 L 58.751,23.454 L 58.751,36.918 L 60.281,36.918 L 60.281,31.659 L 60.355,31.659 C 60.97,32.76 61.679,33.059 62.91,33.059 C 64.514,33.059 65.409,32.256 65.409,30.131 L 65.409,23.454 L 63.879,23.454 z"
           style="fill:#004077;fill-opacity:1;fill-rule:nonzero;stroke:none"
           id="path2434" /><path
           d="M 73.016,32.871 L 74.545,32.871 L 74.545,25.412 C 74.545,24.76 74.583,24.107 74.638,23.454 L 73.016,23.454 L 73.016,24.592 L 72.96,24.592 C 72.457,23.734 71.562,23.269 70.573,23.269 C 68.933,23.269 68.037,24.088 68.037,25.692 L 68.037,32.871 L 69.566,32.871 L 69.566,26.345 C 69.566,25.208 70.088,24.442 71.17,24.442 C 71.991,24.442 73.016,25.059 73.016,26.624 L 73.016,32.871 z"
           style="fill:#004077;fill-opacity:1;fill-rule:nonzero;stroke:none"
           id="path2436" /><path
           d="M 78.74,23.454 L 77.211,23.454 L 77.211,36.918 L 78.74,36.918 L 78.74,23.454 z"
           style="fill:#004077;fill-opacity:1;fill-rule:nonzero;stroke:none"
           id="path2438" /><path
           d="M 86.498,28.825 C 86.498,31.566 85.732,31.901 84.614,31.901 C 83.644,31.901 82.842,31.436 82.823,28.825 L 86.498,28.825 z M 82.823,27.668 C 82.823,25.039 83.532,24.517 84.726,24.517 C 85.77,24.517 86.31,25.357 86.367,26.308 L 88.045,26.308 C 88.026,24.219 86.739,23.269 84.763,23.269 C 82.768,23.269 81.182,23.865 81.182,28.022 C 81.182,30.783 81.5,33.059 84.763,33.059 C 87.448,33.059 88.12,31.585 88.12,28.471 L 88.12,27.668 L 82.823,27.668 z"
           style="fill:#004077;fill-opacity:1;fill-rule:nonzero;stroke:none"
           id="path2440" /><path
           d="M 95.073,32.871 L 95.073,34.699 C 95.073,36.601 96.416,36.974 97.777,36.974 C 98.095,36.974 98.281,36.956 98.504,36.918 L 98.504,35.818 C 96.882,35.93 96.603,35.24 96.603,34.476 L 96.603,32.871 L 98.504,32.871 L 98.504,31.716 L 96.603,31.716 L 96.603,23.454 L 95.073,23.454 L 95.073,31.716 L 93.619,31.716 L 93.619,32.871 L 95.073,32.871 z"
           style="fill:#004077;fill-opacity:1;fill-rule:nonzero;stroke:none"
           id="path2442" /><path
           d="M 106.075,34.457 L 104.322,34.457 L 104.322,36.396 L 106.075,36.396 L 106.075,34.457 z M 102.793,34.457 L 101.04,34.457 L 101.04,36.396 L 102.793,36.396 L 102.793,34.457 z M 105.273,32.871 L 106.802,32.871 L 106.802,25.412 C 106.802,24.76 106.839,24.107 106.896,23.454 L 105.273,23.454 L 105.273,24.592 L 105.217,24.592 C 104.713,23.734 103.818,23.269 102.83,23.269 C 101.189,23.269 100.293,24.088 100.293,25.692 L 100.293,32.871 L 101.823,32.871 L 101.823,26.345 C 101.823,25.208 102.346,24.442 103.427,24.442 C 104.247,24.442 105.273,25.059 105.273,26.624 L 105.273,32.871 z"
           style="fill:#004077;fill-opacity:1;fill-rule:nonzero;stroke:none"
           id="path2444" /><path
           d="M 111.034,31.454 L 111.072,31.454 C 111.705,32.89 112.489,33.059 113.981,33.059 L 113.981,31.474 C 113.701,31.511 113.44,31.566 113.161,31.566 C 111.463,31.566 111.034,30.28 111.034,29.011 L 111.034,23.454 L 109.505,23.454 L 109.505,32.871 L 111.034,32.871 L 111.034,31.454 z"
           style="fill:#004077;fill-opacity:1;fill-rule:nonzero;stroke:none"
           id="path2446" /><path
           d="M 121.196,26.252 C 121.196,25.338 121.644,24.517 122.669,24.517 C 123.602,24.517 124.758,25.096 124.609,28.136 C 123.154,28.116 121.196,28.247 121.196,26.252 M 124.646,24.815 L 124.609,24.815 C 124.143,23.734 123.415,23.269 122.24,23.269 C 120.245,23.269 119.667,24.555 119.667,26.363 C 119.667,29.217 122.464,29.347 124.609,29.291 C 124.646,30.541 124.665,31.901 123.024,31.901 C 121.998,31.901 121.458,31.212 121.55,30.224 L 119.891,30.224 C 119.966,32.331 121.084,33.059 123.08,33.059 C 125.504,33.059 126.138,31.809 126.138,30.224 L 126.138,25.692 C 126.138,24.946 126.212,24.182 126.324,23.454 L 124.646,23.454 L 124.646,24.815 z"
           style="fill:#004077;fill-opacity:1;fill-rule:nonzero;stroke:none"
           id="path2448" /><path
           d="M 134.006,23.454 L 134.006,29.981 C 134.006,30.988 133.652,31.809 132.347,31.809 C 130.668,31.809 130.426,30.316 130.426,29.03 L 130.426,23.454 L 128.896,23.454 L 128.896,30.914 C 128.896,31.566 128.859,32.22 128.803,32.871 L 130.426,32.871 L 130.426,31.659 L 130.5,31.659 C 131.097,32.723 131.807,33.059 133.018,33.059 C 135.032,33.059 135.536,31.846 135.536,29.981 L 135.536,23.454 L 134.006,23.454 z"
           style="fill:#004077;fill-opacity:1;fill-rule:nonzero;stroke:none"
           id="path2450" /><path
           d="M 141.297,31.79 C 139.562,31.79 139.507,29.702 139.507,28.452 C 139.507,25.431 140.196,24.723 141.334,24.723 C 143.181,24.723 143.124,26.904 143.124,28.21 C 143.124,29.607 143.218,31.79 141.297,31.79 M 143.087,32.871 L 144.616,32.871 L 144.616,22.503 C 144.616,20.396 143.218,19.893 141.147,19.893 C 139.581,19.893 138.164,20.676 138.295,22.41 L 140.01,22.41 C 140.029,21.533 140.606,21.049 141.446,21.049 C 142.509,21.049 143.087,21.701 143.087,22.672 L 143.087,24.63 L 143.031,24.63 C 142.64,23.884 141.781,23.454 140.961,23.454 C 138.406,23.454 137.902,25.655 137.902,28.452 C 137.902,32.778 140.085,33.059 140.85,33.059 C 141.838,33.059 142.621,32.629 143.05,31.716 L 143.087,31.716 L 143.087,32.871 z"
           style="fill:#004077;fill-opacity:1;fill-rule:nonzero;stroke:none"
           id="path2452" /><path
           d="M 152.429,28.825 C 152.429,31.566 151.664,31.901 150.545,31.901 C 149.575,31.901 148.773,31.436 148.755,28.825 L 152.429,28.825 z M 148.755,27.668 C 148.755,25.039 149.463,24.517 150.656,24.517 C 151.701,24.517 152.243,25.357 152.298,26.308 L 153.977,26.308 C 153.958,24.219 152.672,23.269 150.694,23.269 C 148.699,23.269 147.114,23.865 147.114,28.022 C 147.114,30.783 147.431,33.059 150.694,33.059 C 153.38,33.059 154.052,31.585 154.052,28.471 L 154.052,27.668 L 148.755,27.668 z"
           style="fill:#004077;fill-opacity:1;fill-rule:nonzero;stroke:none"
           id="path2454" /><path
           d="M 155.468,32.871 L 157.165,32.871 L 158.862,24.76 L 158.898,24.76 L 160.987,32.871 L 163.15,32.871 L 165.071,24.76 L 165.109,24.76 L 166.973,32.871 L 168.596,32.871 L 166.078,23.454 L 164.027,23.454 L 162.014,31.474 L 161.977,31.474 L 159.868,23.454 L 157.817,23.454 L 155.468,32.871 z"
           style="fill:#004077;fill-opacity:1;fill-rule:nonzero;stroke:none"
           id="path2456" /><path
           d="M 171.54,26.252 C 171.54,25.338 171.988,24.517 173.014,24.517 C 173.946,24.517 175.103,25.096 174.953,28.136 C 173.498,28.116 171.54,28.247 171.54,26.252 M 174.99,24.815 L 174.953,24.815 C 174.486,23.734 173.76,23.269 172.585,23.269 C 170.589,23.269 170.011,24.555 170.011,26.363 C 170.011,29.217 172.809,29.347 174.953,29.291 C 174.99,30.541 175.009,31.901 173.367,31.901 C 172.342,31.901 171.801,31.212 171.894,30.224 L 170.234,30.224 C 170.31,32.331 171.428,33.059 173.424,33.059 C 175.849,33.059 176.482,31.809 176.482,30.224 L 176.482,25.692 C 176.482,24.946 176.557,24.182 176.668,23.454 L 174.99,23.454 L 174.99,24.815 z"
           style="fill:#004077;fill-opacity:1;fill-rule:nonzero;stroke:none"
           id="path2458" /><path
           d="M 184.35,23.454 L 184.35,29.981 C 184.35,30.988 183.996,31.809 182.69,31.809 C 181.013,31.809 180.77,30.316 180.77,29.03 L 180.77,23.454 L 179.241,23.454 L 179.241,30.914 C 179.241,31.566 179.204,32.22 179.147,32.871 L 180.77,32.871 L 180.77,31.659 L 180.845,31.659 C 181.442,32.723 182.15,33.059 183.362,33.059 C 185.376,33.059 185.88,31.846 185.88,29.981 L 185.88,23.454 L 184.35,23.454 z"
           style="fill:#004077;fill-opacity:1;fill-rule:nonzero;stroke:none"
           id="path2460" /><path
           d="M 191.753,31.809 C 190.112,31.809 189.888,30.503 189.888,27.986 C 189.888,26.568 189.888,24.517 191.81,24.517 C 193.524,24.517 193.524,26.644 193.524,28.545 C 193.524,29.795 193.45,31.809 191.753,31.809 M 193.524,36.918 L 195.054,36.918 L 195.054,23.454 L 193.524,23.454 L 193.524,24.573 L 193.487,24.573 C 192.965,23.696 192.312,23.269 191.324,23.269 C 189.813,23.269 188.284,23.865 188.284,28.005 C 188.284,30.354 188.359,33.059 191.398,33.059 C 192.294,33.059 192.946,32.667 193.469,31.921 L 193.524,31.921 L 193.524,36.918 z"
           style="fill:#004077;fill-opacity:1;fill-rule:nonzero;stroke:none"
           id="path2462" /><path
           d="M 198.371,32.871 L 198.371,34.68 L 199.9,35.371 L 199.9,32.871 L 201.951,32.871 L 201.951,31.716 L 199.9,31.716 L 199.9,25.954 C 199.9,25.357 199.9,24.592 201.3,24.592 C 201.411,24.592 201.653,24.63 201.989,24.666 L 201.989,23.491 C 201.485,23.454 200.981,23.342 200.479,23.342 C 199.024,23.342 198.371,23.938 198.371,25.021 L 198.371,31.716 L 196.824,31.716 L 196.824,32.871 L 198.371,32.871 z"
           style="fill:#004077;fill-opacity:1;fill-rule:nonzero;stroke:none"
           id="path2464" /><path
           d="M 208.702,28.825 C 208.702,31.566 207.938,31.901 206.818,31.901 C 205.849,31.901 205.047,31.436 205.028,28.825 L 208.702,28.825 z M 205.028,27.668 C 205.028,25.039 205.736,24.517 206.93,24.517 C 207.975,24.517 208.516,25.357 208.571,26.308 L 210.25,26.308 C 210.231,24.219 208.945,23.269 206.968,23.269 C 204.972,23.269 203.388,23.865 203.388,28.022 C 203.388,30.783 203.704,33.059 206.968,33.059 C 209.653,33.059 210.324,31.585 210.324,28.471 L 210.324,27.668 L 205.028,27.668 z"
           style="fill:#004077;fill-opacity:1;fill-rule:nonzero;stroke:none"
           id="path2466" /><path
           d="M 89.35,15.527 L 91.177,15.527 L 93.713,3.854 L 93.75,3.854 L 96.455,15.527 L 98.674,15.527 L 101.117,3.854 L 101.154,3.854 L 103.896,15.527 L 105.686,15.527 L 102.124,2.063 L 100.036,2.063 L 97.48,13.736 L 97.443,13.736 L 94.72,2.063 L 92.632,2.063 L 89.35,15.527 z"
           style="fill:#004077;fill-opacity:1;fill-rule:nonzero;stroke:none"
           id="path2468" /><path
           d="M 109.246,2.063 L 107.717,2.063 L 107.717,11.48 L 109.246,11.48 L 109.246,2.063 z M 107.624,15.527 L 109.339,15.527 L 109.339,13.885 L 107.624,13.885 L 107.624,15.527 z"
           style="fill:#004077;fill-opacity:1;fill-rule:nonzero;stroke:none"
           id="path2470" /><path
           d="M 114.652,1.878 C 112.62,1.878 111.352,2.772 111.408,4.935 L 113.142,4.935 C 113.142,4.395 113.161,3.126 114.708,3.126 C 115.622,3.126 116.331,3.592 116.331,4.563 C 116.331,6.24 111.632,6.277 111.632,9.094 C 111.632,10.083 112.229,11.668 114.876,11.668 C 116.555,11.668 117.991,10.865 117.86,9.001 L 116.163,9.001 C 116.182,9.988 115.66,10.511 114.69,10.511 C 113.87,10.511 113.235,10.063 113.235,9.243 C 113.235,7.583 117.935,7.62 117.935,4.749 C 117.935,2.679 116.517,1.878 114.652,1.878"
           style="fill:#004077;fill-opacity:1;fill-rule:nonzero;stroke:none"
           id="path2472" /><path
           d="M 123.099,1.878 C 121.066,1.878 119.798,2.772 119.854,4.935 L 121.588,4.935 C 121.588,4.395 121.606,3.126 123.155,3.126 C 124.068,3.126 124.777,3.592 124.777,4.563 C 124.777,6.24 120.078,6.277 120.078,9.094 C 120.078,10.083 120.675,11.668 123.322,11.668 C 125.001,11.668 126.437,10.865 126.306,9.001 L 124.609,9.001 C 124.628,9.988 124.106,10.511 123.136,10.511 C 122.316,10.511 121.681,10.063 121.681,9.243 C 121.681,7.583 126.381,7.62 126.381,4.749 C 126.381,2.679 124.963,1.878 123.099,1.878"
           style="fill:#004077;fill-opacity:1;fill-rule:nonzero;stroke:none"
           id="path2474" /><path
           d="M 133.764,7.435 C 133.764,10.176 133,10.511 131.881,10.511 C 130.911,10.511 130.109,10.045 130.091,7.435 L 133.764,7.435 z M 130.091,6.277 C 130.091,3.648 130.799,3.126 131.992,3.126 C 133.037,3.126 133.578,3.966 133.633,4.916 L 135.313,4.916 C 135.294,2.828 134.007,1.878 132.03,1.878 C 130.035,1.878 128.45,2.475 128.45,6.632 C 128.45,9.392 128.767,11.668 132.03,11.668 C 134.716,11.668 135.387,10.194 135.387,7.079 L 135.387,6.277 L 130.091,6.277 z"
           style="fill:#004077;fill-opacity:1;fill-rule:nonzero;stroke:none"
           id="path2476" /><path
           d="M 142.92,2.063 L 142.92,8.591 C 142.92,9.598 142.565,10.418 141.259,10.418 C 139.581,10.418 139.339,8.926 139.339,7.64 L 139.339,2.063 L 137.81,2.063 L 137.81,9.522 C 137.81,10.176 137.771,10.829 137.716,11.48 L 139.339,11.48 L 139.339,10.269 L 139.413,10.269 C 140.01,11.331 140.719,11.668 141.931,11.668 C 143.944,11.668 144.448,10.454 144.448,8.591 L 144.448,2.063 L 142.92,2.063 z"
           style="fill:#004077;fill-opacity:1;fill-rule:nonzero;stroke:none"
           id="path2478" /><path
           d="M 149.874,1.878 C 147.842,1.878 146.573,2.772 146.63,4.935 L 148.364,4.935 C 148.364,4.395 148.382,3.126 149.931,3.126 C 150.844,3.126 151.553,3.592 151.553,4.563 C 151.553,6.24 146.854,6.277 146.854,9.094 C 146.854,10.083 147.45,11.668 150.098,11.668 C 151.776,11.668 153.212,10.865 153.082,9.001 L 151.384,9.001 C 151.403,9.988 150.882,10.511 149.912,10.511 C 149.092,10.511 148.457,10.063 148.457,9.243 C 148.457,7.583 153.156,7.62 153.156,4.749 C 153.156,2.679 151.739,1.878 149.874,1.878"
           style="fill:#004077;fill-opacity:1;fill-rule:nonzero;stroke:none"
           id="path2480" /><path
           d="M 160.203,8.46 C 160.241,10.007 159.476,10.418 158.898,10.418 C 157.724,10.418 156.922,9.857 156.922,7.285 C 156.922,4.227 157.313,3.126 158.898,3.126 C 159.252,3.126 160.314,3.499 160.26,5.196 L 161.863,5.196 C 161.919,2.548 159.943,1.878 158.898,1.878 C 156.903,1.878 155.318,2.475 155.318,6.632 C 155.318,9.392 155.635,11.668 158.898,11.668 C 160.782,11.668 161.883,10.567 161.788,8.46 L 160.203,8.46 z"
           style="fill:#004077;fill-opacity:1;fill-rule:nonzero;stroke:none"
           id="path2482" /><path
           d="M 169.452,2.063 L 169.452,8.441 C 169.452,9.598 169.08,10.418 167.774,10.418 C 166.245,10.418 165.854,9.188 165.854,7.602 L 165.854,2.063 L 164.324,2.063 L 164.324,15.527 L 165.854,15.527 L 165.854,10.269 L 165.928,10.269 C 166.544,11.369 167.252,11.668 168.483,11.668 C 170.087,11.668 170.981,10.865 170.981,8.74 L 170.981,2.063 L 169.452,2.063 z"
           style="fill:#004077;fill-opacity:1;fill-rule:nonzero;stroke:none"
           id="path2484" /><path
           d="M 174.897,4.861 C 174.897,3.946 175.345,3.126 176.369,3.126 C 177.303,3.126 178.458,3.704 178.309,6.744 C 176.855,6.725 174.897,6.855 174.897,4.861 M 178.347,3.425 L 178.309,3.425 C 177.843,2.344 177.115,1.878 175.941,1.878 C 173.946,1.878 173.367,3.164 173.367,4.973 C 173.367,7.825 176.165,7.956 178.309,7.9 C 178.347,9.149 178.365,10.511 176.725,10.511 C 175.699,10.511 175.157,9.821 175.252,8.833 L 173.591,8.833 C 173.666,10.94 174.785,11.668 176.78,11.668 C 179.204,11.668 179.839,10.418 179.839,8.833 L 179.839,4.301 C 179.839,3.556 179.913,2.791 180.025,2.063 L 178.347,2.063 L 178.347,3.425 z"
           style="fill:#004077;fill-opacity:1;fill-rule:nonzero;stroke:none"
           id="path2486" /><path
           d="M 183.156,11.48 L 183.156,13.309 C 183.156,15.21 184.499,15.583 185.86,15.583 C 186.177,15.583 186.364,15.564 186.588,15.527 L 186.588,14.428 C 184.965,14.539 184.685,13.849 184.685,13.085 L 184.685,11.48 L 186.588,11.48 L 186.588,10.325 L 184.685,10.325 L 184.685,2.063 L 183.156,2.063 L 183.156,10.325 L 181.701,10.325 L 181.701,11.48 L 183.156,11.48 z"
           style="fill:#004077;fill-opacity:1;fill-rule:nonzero;stroke:none"
           id="path2488" /><path
           d="M 189.217,11.48 L 189.217,13.289 L 190.746,13.979 L 190.746,11.48 L 192.797,11.48 L 192.797,10.325 L 190.746,10.325 L 190.746,4.563 C 190.746,3.966 190.746,3.2 192.145,3.2 C 192.257,3.2 192.499,3.238 192.835,3.275 L 192.835,2.101 C 192.331,2.063 191.827,1.951 191.325,1.951 C 189.87,1.951 189.217,2.548 189.217,3.63 L 189.217,10.325 L 187.669,10.325 L 187.669,11.48 L 189.217,11.48 z"
           style="fill:#004077;fill-opacity:1;fill-rule:nonzero;stroke:none"
           id="path2490" /><path
           d="M 199.565,7.435 C 199.565,10.176 198.802,10.511 197.683,10.511 C 196.713,10.511 195.911,10.045 195.893,7.435 L 199.565,7.435 z M 195.893,6.277 C 195.893,3.648 196.602,3.126 197.795,3.126 C 198.839,3.126 199.38,3.966 199.437,4.916 L 201.114,4.916 C 201.096,2.828 199.808,1.878 197.832,1.878 C 195.836,1.878 194.251,2.475 194.251,6.632 C 194.251,9.392 194.568,11.668 197.832,11.668 C 200.518,11.668 201.188,10.194 201.188,7.079 L 201.188,6.277 L 195.893,6.277 z"
           style="fill:#004077;fill-opacity:1;fill-rule:nonzero;stroke:none"
           id="path2492" /><path
           d="M 208.738,2.063 L 208.738,8.591 C 208.738,9.598 208.385,10.418 207.079,10.418 C 205.401,10.418 205.158,8.926 205.158,7.64 L 205.158,2.063 L 203.629,2.063 L 203.629,9.522 C 203.629,10.176 203.593,10.829 203.536,11.48 L 205.158,11.48 L 205.158,10.269 L 205.233,10.269 C 205.83,11.331 206.538,11.668 207.75,11.668 C 209.765,11.668 210.269,10.454 210.269,8.591 L 210.269,2.063 L 208.738,2.063 z"
           style="fill:#004077;fill-opacity:1;fill-rule:nonzero;stroke:none"
           id="path2494" /><path
           d="M 145.168,52.615 C 145.168,50.535 145.292,49.105 145.538,48.326 C 145.791,47.545 146.342,47.156 147.189,47.156 C 148.023,47.156 148.561,47.552 148.8,48.346 C 149.046,49.139 149.169,50.59 149.169,52.697 C 149.169,54.865 149.035,56.316 148.769,57.047 C 148.509,57.787 147.969,58.156 147.148,58.156 C 146.335,58.156 145.801,57.769 145.548,56.997 C 145.295,56.223 145.168,54.763 145.168,52.615 M 141.95,53.711 C 141.95,56.268 142.367,58.028 143.201,58.992 C 144.035,59.955 145.357,60.437 147.169,60.437 C 148.933,60.437 150.241,59.965 151.096,59.022 C 151.957,58.079 152.388,56.33 152.388,53.773 L 152.388,52.656 L 152.388,51.498 C 152.388,48.879 151.933,47.12 151.024,46.217 C 150.122,45.322 148.851,44.875 147.21,44.875 C 145.302,44.875 143.949,45.39 143.149,46.422 C 142.35,47.455 141.95,49.084 141.95,51.313 L 141.95,52.656 L 141.95,53.711 z"
           style="fill:#004077;fill-opacity:1;fill-rule:nonzero;stroke:none"
           id="path2496" /><path
           d="M 154.65,48.501 L 157.588,48.5 L 157.583,48.5 L 157.583,48.099 C 157.583,47.6 157.676,47.247 157.86,47.042 C 158.052,46.836 158.36,46.734 158.785,46.734 C 159.135,46.734 159.405,46.819 159.598,46.99 C 159.796,47.161 159.896,47.438 159.896,47.82 C 159.896,48.134 159.779,48.432 159.547,48.712 C 159.314,48.992 158.699,49.351 157.701,49.789 L 157.168,50.014 C 156.402,50.348 155.79,50.762 155.332,51.254 C 154.874,51.746 154.646,52.306 154.646,52.935 C 154.646,53.918 155.018,54.674 155.764,55.2 C 156.516,55.733 157.564,56 158.912,56 C 160.026,56 160.922,55.726 161.599,55.18 C 162.275,54.64 162.614,53.95 162.614,53.11 L 162.614,52.72 L 162.619,52.72 L 162.619,52.718 L 159.682,52.718 L 159.677,52.718 C 159.677,53.413 159.594,53.856 159.429,54.047 C 159.264,54.245 159.01,54.343 158.666,54.343 C 158.287,54.343 158.013,54.248 157.841,54.056 C 157.669,53.865 157.583,53.579 157.583,53.196 C 157.583,52.943 157.713,52.705 157.973,52.479 C 158.232,52.261 158.697,51.995 159.367,51.68 L 160.085,51.363 C 161.124,50.892 161.842,50.404 162.238,49.898 C 162.635,49.393 162.833,48.816 162.833,48.167 C 162.833,47.164 162.457,46.365 161.706,45.771 C 160.954,45.184 159.998,44.89 158.837,44.89 C 157.348,44.89 156.274,45.146 155.619,45.66 C 154.97,46.179 154.646,46.969 154.646,48.03 L 154.646,48.501 L 154.65,48.501 z"
           style="fill:#004077;fill-opacity:1;fill-rule:nonzero;stroke:none"
           id="path2498" /><path
           d="M 164.276,53.937 L 164.276,55.781 L 165.464,55.781 L 165.464,57.403 L 168.401,58.734 L 168.401,55.781 L 169.886,55.781 L 169.886,53.937 L 168.401,53.937 L 168.401,47.996 C 168.401,47.497 168.463,47.162 168.586,46.991 C 168.709,46.819 168.983,46.734 169.408,46.734 C 169.545,46.734 169.698,46.744 169.87,46.763 L 169.87,45.001 C 169.31,44.927 168.828,44.89 168.425,44.89 C 166.451,44.89 165.464,45.714 165.464,47.362 L 165.464,53.937 L 164.276,53.937 z"
           style="fill:#004077;fill-opacity:1;fill-rule:nonzero;stroke:none"
           id="path2500" /><path
           d="M 171.118,55.781 L 172.431,55.781 L 172.431,57.614 C 172.431,58.562 172.67,59.245 173.149,59.662 C 173.635,60.084 174.53,60.296 175.837,60.296 C 176.179,60.296 176.518,60.283 176.853,60.255 L 176.858,58.424 C 176.741,58.443 176.634,58.453 176.537,58.453 C 176.068,58.453 175.755,58.336 175.596,58.104 C 175.444,57.873 175.368,57.511 175.368,57.02 L 175.368,55.781 L 176.681,55.781 L 176.681,53.937 L 175.368,53.937 L 175.368,45.109 L 172.431,45.109 L 172.431,53.937 L 171.118,53.937 L 171.118,55.781 z"
           style="fill:#004077;fill-opacity:1;fill-rule:nonzero;stroke:none"
           id="path2502" /><path
           d="M 183.628,50.296 C 182.645,50.296 181.985,50.173 181.648,49.928 C 181.312,49.689 181.144,49.208 181.144,48.484 C 181.144,47.317 181.515,46.734 182.257,46.734 C 183.171,46.734 183.628,47.471 183.628,48.945 L 183.628,50.296 z M 178.425,52.718 C 178.425,54.906 179.708,56 182.274,56 C 183.78,56 184.871,55.736 185.549,55.21 C 186.227,54.683 186.565,53.771 186.565,52.472 L 186.565,46.975 C 186.565,46.319 186.612,45.697 186.706,45.109 L 183.943,45.109 L 183.815,46.593 C 183.213,45.458 182.291,44.89 181.052,44.89 C 179.154,44.89 178.206,46.021 178.206,48.283 C 178.206,49.582 178.552,50.517 179.243,51.091 C 179.935,51.666 181.19,51.953 183.012,51.953 L 183.628,51.953 L 183.628,52.832 C 183.628,53.329 183.549,53.703 183.39,53.955 C 183.231,54.214 182.932,54.343 182.49,54.343 C 182.056,54.343 181.759,54.21 181.601,53.945 C 181.441,53.686 181.362,53.277 181.362,52.718 L 178.425,52.718 z"
           style="fill:#004077;fill-opacity:1;fill-rule:nonzero;stroke:none"
           id="path2504" /><path
           d="M 189.715,60.203 L 192.653,60.203 L 192.653,45.109 L 189.715,45.109 L 189.715,60.203 z"
           style="fill:#004077;fill-opacity:1;fill-rule:nonzero;stroke:none"
           id="path2506" /><path
           d="M 196.032,55.781 L 198.97,55.781 L 198.97,45.109 L 196.032,45.109 L 196.032,55.781 z M 196.032,60.265 L 198.97,60.265 L 198.97,57.921 L 196.032,57.921 L 196.032,60.265 z"
           style="fill:#004077;fill-opacity:1;fill-rule:nonzero;stroke:none"
           id="path2508" /><path
           d="M 207.225,50.296 C 206.242,50.296 205.582,50.173 205.246,49.928 C 204.909,49.689 204.74,49.208 204.74,48.484 C 204.74,47.317 205.111,46.734 205.854,46.734 C 206.768,46.734 207.225,47.471 207.225,48.945 L 207.225,50.296 z M 202.021,52.718 C 202.021,54.906 203.305,56 205.871,56 C 207.377,56 208.469,55.736 209.146,55.21 C 209.823,54.683 210.162,53.771 210.162,52.472 L 210.162,46.975 C 210.162,46.319 210.209,45.697 210.303,45.109 L 207.54,45.109 L 207.412,46.593 C 206.81,45.458 205.889,44.89 204.648,44.89 C 202.752,44.89 201.803,46.021 201.803,48.283 C 201.803,49.582 202.148,50.517 202.84,51.091 C 203.531,51.666 204.788,51.953 206.608,51.953 L 207.225,51.953 L 207.225,52.832 C 207.225,53.329 207.146,53.703 206.987,53.955 C 206.828,54.214 206.528,54.343 206.087,54.343 C 205.652,54.343 205.355,54.21 205.197,53.945 C 205.039,53.686 204.959,53.277 204.959,52.718 L 202.021,52.718 z"
           style="fill:#004077;fill-opacity:1;fill-rule:nonzero;stroke:none"
           id="path2510" /><path
           d="M 237.951,61.341 L 275.327,61.337 C 281.901,61.361 286.322,55.88 286.322,50.246 L 286.322,12.851 C 286.333,7.114 281.814,1.844 275.22,1.835 L 232.083,1.835 L 262.035,31.785 L 262.035,21.535 L 249.519,9.086 L 275.239,9.085 C 277.306,9.085 279.069,10.534 279.069,12.894 L 279.069,50.298 C 279.063,52.597 277.247,54.09 275.282,54.093 L 237.907,54.09 C 235.771,54.103 234.085,52.489 234.085,50.309 L 234.096,24.332 L 246.64,36.918 L 256.892,36.918 L 226.815,6.828 L 226.815,50.309 C 226.796,56.287 231.536,61.341 237.951,61.341"
           style="fill:#004077;fill-opacity:1;fill-rule:nonzero;stroke:none"
           id="path2512" /></g></g></g></svg>